<mxfile host="app.diagrams.net" modified="2023-11-21T14:51:02.044Z" agent="Mozilla/5.0 (Windows NT 10.0; Win64; x64) AppleWebKit/537.36 (KHTML, like Gecko) Chrome/119.0.0.0 Safari/537.36 Edg/119.0.0.0" etag="BgkSxUA6Kaio3rxSPhgZ" version="22.1.3" type="device" pages="2">
  <diagram name="Страница — 1" id="o3sYmgAIau1fM3dsohi6">
    <mxGraphModel dx="1547" dy="800" grid="1" gridSize="10" guides="1" tooltips="1" connect="1" arrows="1" fold="1" page="1" pageScale="1" pageWidth="3300" pageHeight="2339" math="0" shadow="0">
      <root>
        <mxCell id="0" />
        <mxCell id="1" parent="0" />
        <mxCell id="FY81dZ7kDu10n6bw8b0m-8" value="" style="endArrow=classic;html=1;rounded=0;entryX=0;entryY=0.75;entryDx=0;entryDy=0;" parent="1" edge="1">
          <mxGeometry width="50" height="50" relative="1" as="geometry">
            <mxPoint x="100" y="275" as="sourcePoint" />
            <mxPoint x="230" y="275" as="targetPoint" />
          </mxGeometry>
        </mxCell>
        <mxCell id="FY81dZ7kDu10n6bw8b0m-9" value="" style="endArrow=classic;html=1;rounded=0;entryX=0;entryY=0.25;entryDx=0;entryDy=0;" parent="1" edge="1">
          <mxGeometry width="50" height="50" relative="1" as="geometry">
            <mxPoint x="100" y="245" as="sourcePoint" />
            <mxPoint x="230" y="245" as="targetPoint" />
          </mxGeometry>
        </mxCell>
        <mxCell id="FY81dZ7kDu10n6bw8b0m-11" value="&lt;font style=&quot;font-size: 10px;&quot;&gt;Данные о клиенте&lt;/font&gt;" style="text;html=1;strokeColor=none;fillColor=none;align=center;verticalAlign=middle;whiteSpace=wrap;rounded=0;rotation=0;" parent="1" vertex="1">
          <mxGeometry x="110" y="220" width="110" height="30" as="geometry" />
        </mxCell>
        <mxCell id="FY81dZ7kDu10n6bw8b0m-12" value="&lt;font style=&quot;font-size: 10px;&quot;&gt;Данные о персонале&lt;/font&gt;" style="text;html=1;strokeColor=none;fillColor=none;align=center;verticalAlign=middle;whiteSpace=wrap;rounded=0;rotation=0;" parent="1" vertex="1">
          <mxGeometry x="110" y="250" width="110" height="30" as="geometry" />
        </mxCell>
        <mxCell id="hefKUs__YGLpEvHOK8ig-1" value="&lt;span style=&quot;font-size: 14px;&quot;&gt;&lt;br&gt;Валидация&lt;/span&gt;" style="html=1;align=center;verticalAlign=top;rounded=1;absoluteArcSize=1;arcSize=10;dashed=0;whiteSpace=wrap;" parent="1" vertex="1">
          <mxGeometry x="230" y="230" width="180" height="60" as="geometry" />
        </mxCell>
        <mxCell id="hefKUs__YGLpEvHOK8ig-2" value="&lt;font style=&quot;font-size: 14px;&quot;&gt;Проверка на наличие пользователя в системе&lt;/font&gt;" style="html=1;align=center;verticalAlign=top;rounded=1;absoluteArcSize=1;arcSize=10;dashed=0;whiteSpace=wrap;" parent="1" vertex="1">
          <mxGeometry x="230" y="370" width="180" height="60" as="geometry" />
        </mxCell>
        <mxCell id="hefKUs__YGLpEvHOK8ig-3" value="" style="endArrow=classic;html=1;rounded=0;exitX=1;exitY=0.5;exitDx=0;exitDy=0;entryX=0.5;entryY=0;entryDx=0;entryDy=0;" parent="1" source="hefKUs__YGLpEvHOK8ig-1" target="hefKUs__YGLpEvHOK8ig-2" edge="1">
          <mxGeometry width="50" height="50" relative="1" as="geometry">
            <mxPoint x="370" y="410" as="sourcePoint" />
            <mxPoint x="420" y="360" as="targetPoint" />
            <Array as="points">
              <mxPoint x="440" y="260" />
              <mxPoint x="440" y="350" />
              <mxPoint x="380" y="350" />
              <mxPoint x="320" y="350" />
            </Array>
          </mxGeometry>
        </mxCell>
        <mxCell id="hefKUs__YGLpEvHOK8ig-4" value="&lt;font style=&quot;font-size: 10px;&quot;&gt;Данные о пользователе&lt;/font&gt;" style="text;html=1;strokeColor=none;fillColor=none;align=center;verticalAlign=middle;whiteSpace=wrap;rounded=0;rotation=0;" parent="1" vertex="1">
          <mxGeometry x="310" y="320" width="140" height="30" as="geometry" />
        </mxCell>
        <mxCell id="hefKUs__YGLpEvHOK8ig-5" value="&lt;font style=&quot;font-size: 14px;&quot;&gt;&lt;br&gt;Регистрация пользователя&lt;/font&gt;" style="html=1;align=center;verticalAlign=top;rounded=1;absoluteArcSize=1;arcSize=10;dashed=0;whiteSpace=wrap;" parent="1" vertex="1">
          <mxGeometry x="230" y="480" width="180" height="60" as="geometry" />
        </mxCell>
        <mxCell id="V4f_2r2WSFjoRzTgrVU7-1" value="" style="endArrow=classic;html=1;rounded=0;exitX=1;exitY=0.75;exitDx=0;exitDy=0;entryX=0.5;entryY=0;entryDx=0;entryDy=0;" edge="1" parent="1" source="hefKUs__YGLpEvHOK8ig-2" target="hefKUs__YGLpEvHOK8ig-5">
          <mxGeometry width="50" height="50" relative="1" as="geometry">
            <mxPoint x="640" y="400" as="sourcePoint" />
            <mxPoint x="690" y="350" as="targetPoint" />
            <Array as="points">
              <mxPoint x="470" y="415" />
              <mxPoint x="470" y="470" />
              <mxPoint x="320" y="470" />
            </Array>
          </mxGeometry>
        </mxCell>
        <mxCell id="V4f_2r2WSFjoRzTgrVU7-2" value="&lt;span style=&quot;font-size: 10px;&quot;&gt;Отсутствие&amp;nbsp;в системе&lt;/span&gt;" style="text;html=1;strokeColor=none;fillColor=none;align=center;verticalAlign=middle;whiteSpace=wrap;rounded=0;rotation=0;" vertex="1" parent="1">
          <mxGeometry x="330" y="440" width="140" height="30" as="geometry" />
        </mxCell>
        <mxCell id="V4f_2r2WSFjoRzTgrVU7-3" value="" style="endArrow=classic;html=1;rounded=0;entryX=0.25;entryY=1;entryDx=0;entryDy=0;" edge="1" parent="1" target="V4f_2r2WSFjoRzTgrVU7-15">
          <mxGeometry width="50" height="50" relative="1" as="geometry">
            <mxPoint x="160" y="640" as="sourcePoint" />
            <mxPoint x="560" y="310" as="targetPoint" />
            <Array as="points">
              <mxPoint x="160" y="310" />
              <mxPoint x="675" y="310" />
            </Array>
          </mxGeometry>
        </mxCell>
        <mxCell id="V4f_2r2WSFjoRzTgrVU7-4" value="&lt;font style=&quot;font-size: 10px;&quot;&gt;Система&lt;/font&gt;" style="text;html=1;strokeColor=none;fillColor=none;align=center;verticalAlign=middle;whiteSpace=wrap;rounded=0;rotation=-90;" vertex="1" parent="1">
          <mxGeometry x="120" y="510" width="60" height="30" as="geometry" />
        </mxCell>
        <mxCell id="V4f_2r2WSFjoRzTgrVU7-5" value="" style="endArrow=classic;html=1;rounded=0;" edge="1" parent="1">
          <mxGeometry width="50" height="50" relative="1" as="geometry">
            <mxPoint x="160" y="570" as="sourcePoint" />
            <mxPoint x="320" y="540" as="targetPoint" />
            <Array as="points">
              <mxPoint x="320" y="570" />
            </Array>
          </mxGeometry>
        </mxCell>
        <mxCell id="V4f_2r2WSFjoRzTgrVU7-6" value="" style="endArrow=classic;html=1;rounded=0;" edge="1" parent="1">
          <mxGeometry width="50" height="50" relative="1" as="geometry">
            <mxPoint x="160" y="450" as="sourcePoint" />
            <mxPoint x="320" y="430" as="targetPoint" />
            <Array as="points">
              <mxPoint x="240" y="450" />
              <mxPoint x="320" y="450" />
            </Array>
          </mxGeometry>
        </mxCell>
        <mxCell id="V4f_2r2WSFjoRzTgrVU7-7" value="" style="endArrow=classic;html=1;rounded=0;entryX=0.5;entryY=1;entryDx=0;entryDy=0;" edge="1" parent="1" target="hefKUs__YGLpEvHOK8ig-1">
          <mxGeometry width="50" height="50" relative="1" as="geometry">
            <mxPoint x="320" y="310" as="sourcePoint" />
            <mxPoint x="410" y="270" as="targetPoint" />
          </mxGeometry>
        </mxCell>
        <mxCell id="V4f_2r2WSFjoRzTgrVU7-8" value="&lt;font style=&quot;font-size: 14px;&quot;&gt;Выбор системным администратором роли пользователя&lt;/font&gt;" style="html=1;align=center;verticalAlign=top;rounded=1;absoluteArcSize=1;arcSize=10;dashed=0;whiteSpace=wrap;" vertex="1" parent="1">
          <mxGeometry x="540" y="480" width="180" height="80" as="geometry" />
        </mxCell>
        <mxCell id="V4f_2r2WSFjoRzTgrVU7-9" value="" style="endArrow=classic;html=1;rounded=0;exitX=1;exitY=0.5;exitDx=0;exitDy=0;entryX=0.932;entryY=0.98;entryDx=0;entryDy=0;entryPerimeter=0;" edge="1" parent="1" source="hefKUs__YGLpEvHOK8ig-5" target="V4f_2r2WSFjoRzTgrVU7-10">
          <mxGeometry width="50" height="50" relative="1" as="geometry">
            <mxPoint x="430" y="520" as="sourcePoint" />
            <mxPoint x="480" y="470" as="targetPoint" />
          </mxGeometry>
        </mxCell>
        <mxCell id="V4f_2r2WSFjoRzTgrVU7-10" value="&lt;span style=&quot;font-size: 10px;&quot;&gt;Даннные пользователя&lt;/span&gt;" style="text;html=1;strokeColor=none;fillColor=none;align=center;verticalAlign=middle;whiteSpace=wrap;rounded=0;rotation=0;" vertex="1" parent="1">
          <mxGeometry x="410" y="480" width="140" height="30" as="geometry" />
        </mxCell>
        <mxCell id="V4f_2r2WSFjoRzTgrVU7-11" value="" style="endArrow=classic;html=1;rounded=0;entryX=0.5;entryY=1;entryDx=0;entryDy=0;" edge="1" parent="1" target="V4f_2r2WSFjoRzTgrVU7-8">
          <mxGeometry width="50" height="50" relative="1" as="geometry">
            <mxPoint x="630" y="660" as="sourcePoint" />
            <mxPoint x="600" y="590" as="targetPoint" />
          </mxGeometry>
        </mxCell>
        <mxCell id="V4f_2r2WSFjoRzTgrVU7-12" value="&lt;font style=&quot;font-size: 10px;&quot;&gt;Системный администратор&lt;/font&gt;" style="text;html=1;strokeColor=none;fillColor=none;align=center;verticalAlign=middle;whiteSpace=wrap;rounded=0;rotation=-90;" vertex="1" parent="1">
          <mxGeometry x="600" y="600" width="60" height="30" as="geometry" />
        </mxCell>
        <mxCell id="V4f_2r2WSFjoRzTgrVU7-13" value="" style="endArrow=classic;html=1;rounded=0;entryX=0.25;entryY=0;entryDx=0;entryDy=0;" edge="1" parent="1" target="V4f_2r2WSFjoRzTgrVU7-8">
          <mxGeometry width="50" height="50" relative="1" as="geometry">
            <mxPoint x="585" y="130" as="sourcePoint" />
            <mxPoint x="650" y="375" as="targetPoint" />
          </mxGeometry>
        </mxCell>
        <mxCell id="V4f_2r2WSFjoRzTgrVU7-14" value="&lt;font style=&quot;font-size: 10px;&quot;&gt;Пользовательское соглашение&lt;/font&gt;" style="text;html=1;strokeColor=none;fillColor=none;align=center;verticalAlign=middle;whiteSpace=wrap;rounded=0;rotation=-90;" vertex="1" parent="1">
          <mxGeometry x="550" y="160" width="60" height="30" as="geometry" />
        </mxCell>
        <mxCell id="V4f_2r2WSFjoRzTgrVU7-15" value="&lt;br&gt;&lt;br&gt;Авторизация" style="html=1;align=center;verticalAlign=top;rounded=1;absoluteArcSize=1;arcSize=10;dashed=0;whiteSpace=wrap;" vertex="1" parent="1">
          <mxGeometry x="630" y="210" width="180" height="80" as="geometry" />
        </mxCell>
        <mxCell id="V4f_2r2WSFjoRzTgrVU7-16" value="" style="endArrow=classic;html=1;rounded=0;exitX=1;exitY=0.25;exitDx=0;exitDy=0;entryX=-0.003;entryY=0.626;entryDx=0;entryDy=0;entryPerimeter=0;" edge="1" parent="1" source="hefKUs__YGLpEvHOK8ig-2" target="V4f_2r2WSFjoRzTgrVU7-15">
          <mxGeometry width="50" height="50" relative="1" as="geometry">
            <mxPoint x="390" y="350" as="sourcePoint" />
            <mxPoint x="440" y="300" as="targetPoint" />
            <Array as="points">
              <mxPoint x="480" y="385" />
              <mxPoint x="480" y="260" />
            </Array>
          </mxGeometry>
        </mxCell>
        <mxCell id="V4f_2r2WSFjoRzTgrVU7-17" value="&lt;span style=&quot;font-size: 10px;&quot;&gt;Наличие&lt;br&gt;в системе&lt;/span&gt;" style="text;html=1;strokeColor=none;fillColor=none;align=center;verticalAlign=middle;whiteSpace=wrap;rounded=0;rotation=0;" vertex="1" parent="1">
          <mxGeometry x="460" y="245" width="140" height="30" as="geometry" />
        </mxCell>
        <mxCell id="V4f_2r2WSFjoRzTgrVU7-18" value="" style="endArrow=classic;html=1;rounded=0;exitX=1.001;exitY=0.57;exitDx=0;exitDy=0;exitPerimeter=0;" edge="1" parent="1" source="V4f_2r2WSFjoRzTgrVU7-8">
          <mxGeometry width="50" height="50" relative="1" as="geometry">
            <mxPoint x="850" y="510" as="sourcePoint" />
            <mxPoint x="790" y="290" as="targetPoint" />
            <Array as="points">
              <mxPoint x="790" y="525" />
            </Array>
          </mxGeometry>
        </mxCell>
        <mxCell id="V4f_2r2WSFjoRzTgrVU7-19" value="" style="endArrow=classic;html=1;rounded=0;exitX=1.001;exitY=0.374;exitDx=0;exitDy=0;entryX=0.726;entryY=0.994;entryDx=0;entryDy=0;entryPerimeter=0;exitPerimeter=0;" edge="1" parent="1" source="V4f_2r2WSFjoRzTgrVU7-8" target="V4f_2r2WSFjoRzTgrVU7-15">
          <mxGeometry width="50" height="50" relative="1" as="geometry">
            <mxPoint x="650" y="450" as="sourcePoint" />
            <mxPoint x="700" y="400" as="targetPoint" />
            <Array as="points">
              <mxPoint x="760" y="510" />
            </Array>
          </mxGeometry>
        </mxCell>
        <mxCell id="V4f_2r2WSFjoRzTgrVU7-20" value="" style="endArrow=classic;html=1;rounded=0;exitX=0.998;exitY=0.08;exitDx=0;exitDy=0;entryX=0.5;entryY=1;entryDx=0;entryDy=0;exitPerimeter=0;" edge="1" parent="1" source="V4f_2r2WSFjoRzTgrVU7-8" target="V4f_2r2WSFjoRzTgrVU7-15">
          <mxGeometry width="50" height="50" relative="1" as="geometry">
            <mxPoint x="720" y="440" as="sourcePoint" />
            <mxPoint x="770" y="390" as="targetPoint" />
          </mxGeometry>
        </mxCell>
        <mxCell id="V4f_2r2WSFjoRzTgrVU7-24" value="" style="endArrow=classic;html=1;rounded=0;exitX=0.991;exitY=0.127;exitDx=0;exitDy=0;exitPerimeter=0;" edge="1" parent="1">
          <mxGeometry width="50" height="50" relative="1" as="geometry">
            <mxPoint x="809.9999999999999" y="220.16000000000003" as="sourcePoint" />
            <mxPoint x="980" y="220" as="targetPoint" />
          </mxGeometry>
        </mxCell>
        <mxCell id="V4f_2r2WSFjoRzTgrVU7-25" value="" style="endArrow=classic;html=1;rounded=0;exitX=0.991;exitY=0.127;exitDx=0;exitDy=0;exitPerimeter=0;" edge="1" parent="1">
          <mxGeometry width="50" height="50" relative="1" as="geometry">
            <mxPoint x="809.9999999999999" y="240" as="sourcePoint" />
            <mxPoint x="980" y="240" as="targetPoint" />
          </mxGeometry>
        </mxCell>
        <mxCell id="V4f_2r2WSFjoRzTgrVU7-26" value="" style="endArrow=classic;html=1;rounded=0;exitX=0.991;exitY=0.127;exitDx=0;exitDy=0;exitPerimeter=0;" edge="1" parent="1">
          <mxGeometry width="50" height="50" relative="1" as="geometry">
            <mxPoint x="809.9999999999999" y="260.08000000000004" as="sourcePoint" />
            <mxPoint x="980" y="260" as="targetPoint" />
          </mxGeometry>
        </mxCell>
        <mxCell id="V4f_2r2WSFjoRzTgrVU7-27" value="" style="endArrow=classic;html=1;rounded=0;exitX=0.991;exitY=0.127;exitDx=0;exitDy=0;exitPerimeter=0;" edge="1" parent="1">
          <mxGeometry width="50" height="50" relative="1" as="geometry">
            <mxPoint x="809.9999999999999" y="280.16" as="sourcePoint" />
            <mxPoint x="980" y="280" as="targetPoint" />
          </mxGeometry>
        </mxCell>
        <mxCell id="V4f_2r2WSFjoRzTgrVU7-30" value="&lt;span style=&quot;font-size: 10px;&quot;&gt;Идентификатор горничной&lt;/span&gt;" style="text;html=1;strokeColor=none;fillColor=none;align=center;verticalAlign=middle;whiteSpace=wrap;rounded=0;rotation=-90;" vertex="1" parent="1">
          <mxGeometry x="680" y="380" width="140" height="30" as="geometry" />
        </mxCell>
        <mxCell id="V4f_2r2WSFjoRzTgrVU7-31" value="&lt;span style=&quot;font-size: 10px;&quot;&gt;Идентификатор&amp;nbsp;повара&lt;/span&gt;" style="text;html=1;strokeColor=none;fillColor=none;align=center;verticalAlign=middle;whiteSpace=wrap;rounded=0;rotation=-90;" vertex="1" parent="1">
          <mxGeometry x="750" y="385" width="60" height="30" as="geometry" />
        </mxCell>
        <mxCell id="V4f_2r2WSFjoRzTgrVU7-32" value="&lt;span style=&quot;font-size: 10px;&quot;&gt;Идентификатор администратора&lt;/span&gt;" style="text;html=1;strokeColor=none;fillColor=none;align=center;verticalAlign=middle;whiteSpace=wrap;rounded=0;rotation=-90;" vertex="1" parent="1">
          <mxGeometry x="630" y="380" width="160" height="30" as="geometry" />
        </mxCell>
        <mxCell id="V4f_2r2WSFjoRzTgrVU7-33" value="&lt;span style=&quot;font-size: 10px;&quot;&gt;Идентификатор клиента&lt;/span&gt;" style="text;html=1;strokeColor=none;fillColor=none;align=center;verticalAlign=middle;whiteSpace=wrap;rounded=0;rotation=-90;" vertex="1" parent="1">
          <mxGeometry x="720" y="392.5" width="160" height="15" as="geometry" />
        </mxCell>
        <mxCell id="V4f_2r2WSFjoRzTgrVU7-34" value="" style="endArrow=classic;html=1;rounded=0;exitX=1;exitY=0.88;exitDx=0;exitDy=0;exitPerimeter=0;entryX=1;entryY=1;entryDx=0;entryDy=0;" edge="1" parent="1" source="V4f_2r2WSFjoRzTgrVU7-8" target="V4f_2r2WSFjoRzTgrVU7-15">
          <mxGeometry width="50" height="50" relative="1" as="geometry">
            <mxPoint x="850" y="510" as="sourcePoint" />
            <mxPoint x="900" y="460" as="targetPoint" />
            <Array as="points">
              <mxPoint x="810" y="550" />
            </Array>
          </mxGeometry>
        </mxCell>
        <mxCell id="V4f_2r2WSFjoRzTgrVU7-37" value="&lt;span style=&quot;font-size: 10px;&quot;&gt;Идентификатор администратора&lt;/span&gt;" style="text;html=1;strokeColor=none;fillColor=none;align=center;verticalAlign=middle;whiteSpace=wrap;rounded=0;rotation=0;" vertex="1" parent="1">
          <mxGeometry x="810" y="200" width="160" height="30" as="geometry" />
        </mxCell>
        <mxCell id="V4f_2r2WSFjoRzTgrVU7-38" value="&lt;span style=&quot;font-size: 10px;&quot;&gt;Идентификатор горничной&lt;/span&gt;" style="text;html=1;strokeColor=none;fillColor=none;align=center;verticalAlign=middle;whiteSpace=wrap;rounded=0;rotation=0;" vertex="1" parent="1">
          <mxGeometry x="820" y="230" width="140" height="10" as="geometry" />
        </mxCell>
        <mxCell id="V4f_2r2WSFjoRzTgrVU7-39" value="&lt;span style=&quot;font-size: 10px;&quot;&gt;Идентификатор&amp;nbsp;повара&lt;/span&gt;" style="text;html=1;strokeColor=none;fillColor=none;align=center;verticalAlign=middle;whiteSpace=wrap;rounded=0;rotation=0;" vertex="1" parent="1">
          <mxGeometry x="860" y="250" width="60" height="7.5" as="geometry" />
        </mxCell>
        <mxCell id="V4f_2r2WSFjoRzTgrVU7-40" value="&lt;span style=&quot;font-size: 10px;&quot;&gt;Идентификатор клиента&lt;/span&gt;" style="text;html=1;strokeColor=none;fillColor=none;align=center;verticalAlign=middle;whiteSpace=wrap;rounded=0;rotation=0;" vertex="1" parent="1">
          <mxGeometry x="810" y="270" width="160" height="5" as="geometry" />
        </mxCell>
      </root>
    </mxGraphModel>
  </diagram>
  <diagram id="30CSTh-y9SVbLgZfz-_A" name="Страница — 2">
    <mxGraphModel dx="5413" dy="2800" grid="1" gridSize="10" guides="1" tooltips="1" connect="1" arrows="1" fold="1" page="1" pageScale="1" pageWidth="3300" pageHeight="2339" math="0" shadow="0">
      <root>
        <mxCell id="0" />
        <mxCell id="1" parent="0" />
      </root>
    </mxGraphModel>
  </diagram>
</mxfile>
